<svg xmlns="http://www.w3.org/2000/svg" viewBox="0 0 917 160.43"><defs><style>.cls-1{fill:#b39602;}.cls-2,.cls-3{fill:#fff;}.cls-3{font-size:70.12px;font-family:Montserrat-Bold, Montserrat;font-weight:700;}.cls-4{letter-spacing:-0.01em;}.cls-5,.cls-9{letter-spacing:-0.01em;}.cls-6{letter-spacing:0em;}.cls-7{letter-spacing:-0.01em;}.cls-8,.cls-9{fill:#6d6e71;}.cls-10{font-size:20.67px;fill:#a7a9ac;font-family:Montserrat-Regular, Montserrat;letter-spacing:0.07em;}.cls-11{letter-spacing:0.09em;}.cls-12{letter-spacing:0.1em;}.cls-13{letter-spacing:0.08em;}.cls-14{letter-spacing:0.1em;}.cls-15{letter-spacing:0.09em;}.cls-16{letter-spacing:0.08em;}.cls-17{letter-spacing:0.1em;}</style></defs><title>logodark</title><g id="Layer_2" data-name="Layer 2"><g id="Logo"><path class="cls-1" d="M221.37,82.82,182.75,0H163.24l38.63,82.83L188.3,111.92,183,109.44l-1.49,3.2,5.32,2.48-16.15,34.64a5.54,5.54,0,0,0,2.68,7.37l6,2.78a5.54,5.54,0,0,0,7.37-2.68l16.15-34.64,5.32,2.48,1.49-3.2-5.32-2.48Zm-12.23,0L173.6,6.6h5l35.54,76.22-15.75,33.79-4.06-1.9Zm-13,47.6-6.89.46-4.07-5.57,6.89-.47Zm-5.28,11.32-6.89.46-4.07-5.57,6.89-.46Z"/><path class="cls-1" d="M0,82.82,38.62,0H58.13L19.51,82.83l13.56,29.09,5.32-2.48,1.49,3.2-5.32,2.48,16.16,34.64A5.55,5.55,0,0,1,48,157.13l-6,2.78a5.55,5.55,0,0,1-7.38-2.68L18.54,122.59l-5.32,2.48-1.49-3.2,5.32-2.48Zm12.23,0L47.78,6.6h-5L7.28,82.82,23,116.61l4.07-1.9Zm13,47.6,6.89.46,4.07-5.57-6.89-.47Zm5.28,11.32,6.89.46,4.07-5.57-6.89-.46Z"/><path class="cls-2" d="M158.85,84.7l-42.14,1.92a61,61,0,0,0,13.63-25.29l29,9.87,7.72-1.58c.84-4.52.83-11.17-2.88-21.45-7.16-19.84-44.31-31.79-65.81-14.37-11.28,9.14-13.8,19.4-13.64,27.09C73.65,53.41,59,52.53,59,52.53l-1.25,6C50.5,56.63,42.39,57.14,37,57.86L42,75.29a49.72,49.72,0,0,1,21.81-1l1.1-6.36a41.54,41.54,0,0,1,22,5.65.42.42,0,0,0,0,.1l-27.55,8,.53,19.79,23.6-16.81c-2.37,8.75-4.36,18-4.36,18,20.83,22,60.16,32.39,60.16,32.39,17.31-12.83,28-37,28-37-.84-8.73-6.34-18.79-6.34-18.79Z"/></g><g id="WhiteLogo"><text class="cls-3" transform="translate(251.32 79.23)">D<tspan class="cls-4" x="57.92" y="0">E</tspan><tspan class="cls-5" x="104.27" y="0">V</tspan><tspan class="cls-6" x="155.53" y="0">E</tspan><tspan class="cls-7" x="202.59" y="0">L</tspan><tspan x="244.1" y="0">O</tspan><tspan class="cls-4" x="303.28" y="0">P</tspan><tspan x="353.91" y="0">ER</tspan><tspan class="cls-8" x="452.51" y="0">D</tspan><tspan class="cls-9" x="510.43" y="0">O</tspan><tspan class="cls-8" x="568.56" y="0">JO</tspan></text><text class="cls-10" transform="translate(256.92 122.58)">T<tspan class="cls-11" x="13.21" y="0">A</tspan><tspan class="cls-12" x="29.89" y="0">O NIN</tspan><tspan class="cls-13" x="102.84" y="0">J</tspan><tspan class="cls-14" x="114.95" y="0">A TRAINING </tspan><tspan class="cls-15" x="267.04" y="0">A</tspan><tspan class="cls-16" x="283.73" y="0">C</tspan><tspan class="cls-17" x="300.28" y="0">ADEMY</tspan></text></g></g></svg>